<svg xmlns="http://www.w3.org/2000/svg" xmlns:graphite="https://graphite.art" viewBox="0 0 1024 1024" width="1024" height="1024"><defs><clipPath id="artboard-592685573498706356"><rect x="0" y="0" width="1024" height="1024" /></clipPath></defs><g>
<rect fill="#ffffff" x="0" y="0" width="1024" height="1024"/>
<g clip-path="url(#artboard-592685573498706356)">
	<g>
		<g>
			<path d="M720.82354736,479.07751465 C765.09356689,478.90979004 798.0242309600001,498.6300354 819.34301758,537.51275635 C821.34393311,541.16204834 823.08068848,544.95605469 825.09759521,549.02734375 C834.27416992,569.75506592 839.4835205100001,591.20709229 843.33087158,613.06951904 C850.23260498,652.28771973 853.87701416,691.81799316 855.50030518,731.58526611 C856.206604,748.88928223 857.43121338,766.18499756 857.1237793,783.50140381 C856.69854736,807.4588623 856.3336792,831.46490479 850.25231934,854.89123535 C845.559021,872.9700927700001 839.11456299,890.28076172 825.73565674,903.9221191400001 C797.91662598,932.2870483400001 754.68896484,928.74224854 731.47283936,896.43225098 C719.98254395,880.44116211 712.93182373,862.20544434 705.27709961,844.30908203 C695.8470459,822.26202393 686.85919189,800.0259399400001 677.6607666,777.87963867 C675.1239624,771.7720336900001 669.78137207,768.41271973 664.33740234,770.26672363 C641.9176635700001,777.90216064 619.47540283,776.8093872100001 596.92059326,771.10644531 C580.62054443,766.98504639 564.28570557,763.00146484 547.98669434,758.8760376 C541.89544678,757.33428955 541.29327393,755.6675415 544.99798584,750.73443604 C548.99884033,745.40710449 553.02435303,740.08666992 557.3001709,734.98187256 C559.79083252,732.00836182 560.20043945,729.39440918 558.16864014,725.9717407200001 C552.72705078,716.80511475 547.6774292,707.40435791 542.16900635,698.27960205 C540.09411621,694.84246826 540.27276611,692.36553955 542.92169189,689.38879395 C552.66674805,678.4375 562.11877441,667.22418213 571.92767334,656.33154297 C575.02185059,652.89544678 575.2911377,650.01062012 572.91741943,646.1207885700001 C567.4522705100001,637.16497803 562.53009033,627.8729858400001 556.93054199,619.00604248 C554.1575927700001,614.61505127 554.6955566400001,611.70715332 558.30670166,608.1765747100001 C569.97894287,596.7647705100001 581.30169678,584.99603271 592.93939209,573.5480957 C595.93341064,570.6029052700001 596.37213135,567.8947753900001 594.57196045,564.23284912 C590.67779541,556.31140137 586.98638916,548.28948975 583.26470947,540.28417969 C580.97021484,535.34893799 581.48596191,533.88366699 586.3239135700001,531.7686767600001 C600.51763916,525.5637207 614.6743774400001,519.26763916 628.96929932,513.30371094 C634.9942627,510.7901001 639.5242309600001,507.13885498 641.95556641,500.99258423000003 C643.85595703,496.18850708 647.465271,493.24310303 652.34033203,491.61257935000003 C674.57745361,484.17498779 697.3674316400001,479.16635132 720.82354736,479.07751465 ZM712.62034222,550.26805107 C712.62034222,563.76727346 723.58577151,574.73270275 737.0849939,574.73270275 C750.5842163,574.73270275 761.5496455900001,563.76727346 761.5496455900001,550.26805107 C761.5496455900001,536.7688286700001 750.5842163,525.80339938 737.0849939,525.80339938 C723.58577151,525.80339938 712.62034222,536.7688286700001 712.62034222,550.26805107 ZM661.37662966,596.97329519 C661.37662966,610.4725175494935 672.342058900439,621.4379468204392 685.8412813399999,621.4379468699999 C699.3405037299999,621.4379468699999 710.30593302,610.47251758 710.30593302,596.97329519 C710.30593302,583.47407279 699.34050373,572.5086435000001 685.84128134,572.5086435000001 C672.34205895,572.5086435000001 661.37662966,583.47407279 661.37662966,596.97329519 ZM759.32558634,603.6119946800001 C759.32558634,617.1112162678115 770.2910143267633,628.0766450567633 783.79023802,628.0766463599999 C797.28946042,628.0766463599999 808.25488971,617.1112170700001 808.25488971,603.6119946800001 C808.25488971,590.1127722900001 797.2894604200001,579.147343 783.7902380200001,579.147343 C770.2910156300001,579.147343 759.32558634,590.1127722900001 759.32558634,603.6119946800001 ZM706.85781454,649.37209345 C706.85781454,662.87131584 717.82324383,673.83674513 731.32246622,673.83674513 C744.82168861,673.83674513 755.7871179,662.87131584 755.7871179,649.37209345 C755.7871179,635.87287106 744.82168861,624.90744177 731.32246622,624.90744177 C717.8232425407494,624.9074430592503 706.85781454,635.8728718535795 706.85781454,649.37209345 ZM602.03515625,668.53631592 C584.3551635700001,689.11309814 586.3194580100001,719.03833008 606.50170898,736.58258057 C626.21704102,753.7210083 655.9121093800001,751.41772461 673.7089233400001,731.3696899400001 C691.02319336,711.8652343800001 689.01593018,681.87701416 669.20819092,664.12982178 C649.54364014,646.51092529 620.62585449,648.19042969 602.03515625,668.53631592 Z" fill="#335eac"/>
		</g>
		<g>
			<path d="M453.7240905761719,591.6810302734375 C445.5049133300781,604.0900268554688 445.4912109375,604.1038208007813 455.7018127441406,614.2554931640625 C465.1549072265625,623.6539306640625 474.5246887207031,633.141357421875 484.1761474609375,642.3323364257813 C487.60906982421875,645.6014404296875 487.8539123535156,648.5184326171875 485.57891845703125,652.42724609375 C479.46282958984375,662.9356079101563 473.6484069824219,673.6201171875 467.48956298828125,684.1026611328125 C465.3895568847656,687.6769409179688 465.59039306640625,690.16748046875 468.5806579589844,693.25 C476.11749267578125,701.0194091796875 483.1582336425781,709.268310546875 490.6354675292969,717.0980834960938 C493.7921142578125,720.403564453125 494.28546142578125,723.5128784179688 492.01116943359375,727.3900756835938 C488.7247314453125,732.9927368164063 485.51763916015625,738.6463623046875 482.4509582519531,744.37158203125 C481.05145263671875,746.9843139648438 478.9361572265625,748.2137451171875 476.2094421386719,748.8381958007813 C456.0921630859375,753.4461669921875 435.9997863769531,758.1646118164063 415.861572265625,762.6788330078125 C394.6055603027344,767.4435424804688 373.86236572265625,765.6917114257813 353.64190673828125,757.4730834960938 C344.3789367675781,753.7081909179688 337.9805603027344,756.1492309570313 333.50335693359375,765.1616821289063 C318.53656005859375,795.2890014648438 305.0736389160156,826.149169921875 289.5218200683594,855.98779296875 C281.8583679199219,870.6913452148438 272.8744812011719,884.4659423828125 258.9353942871094,894.2655639648438 C226.6892852783203,916.9356689453125 186.6990509033203,906.764404296875 167.3092041015625,870.9675903320313 C158.20533752441406,854.1602783203125 153.46826171875,836.1911010742188 151.52952575683594,817.223876953125 C147.9315185546875,782.0233764648438 151.0713348388672,747.0657348632813 154.5539093017578,712.1088256835938 C158.76478576660156,669.8416748046875 166.55667114257813,628.18896484375 176.9127197265625,587.021484375 C183.5087127685547,560.801025390625 191.44371032714844,535.015625 205.5376434326172,511.6424255371094 C226.42030334472656,477.010986328125 256.6596984863281,456.8260192871094 297.208984375,452.6019592285156 C325.6041259765625,449.6440124511719 352.4066467285156,456.5977783203125 378.9427490234375,465.3619079589844 C383.2038879394531,466.7691955566406 385.8723449707031,469.9320068359375 387.3438415527344,474.0359191894531 C390.1456604003906,481.8498840332031 395.73236083984375,485.7589416503906 403.745361328125,487.65582275390625 C417.9873962402344,491.02728271484375 432.04644775390625,495.1693115234375 446.1938171386719,498.9448547363281 C449.5774230957031,499.8478088378906 450.7786560058594,501.94805908203125 450.1086120605469,505.2899475097656 C449.29095458984375,509.3682861328125 448.81695556640625,513.5503540039063 447.60107421875,517.5051879882813 C446.0841064453125,522.4393920898438 447.2831726074219,526.26220703125 450.2300109863281,530.3853759765625 C457.1047668457031,540.0045166015625 463.41143798828125,550.0276489257813 470.099365234375,559.7835083007813 C472.2172546386719,562.8729248046875 472.0577087402344,565.3977661132813 469.89605712890625,568.3995361328125 C464.4453125,575.968505859375 459.2346496582031,583.7103271484375 453.7240905761719,591.6810302734375M261.4117736816406,564.2780151367188 C253.4556884765625,564.9766845703125 245.49371337890625,565.6154174804688 237.54551696777344,566.3944702148438 C232.0055694580078,566.9376220703125 227.98934936523438,571.5941772460938 228.50845336914063,576.9945678710938 C229.25656127929688,584.7771606445313 230.1005096435547,592.5550537109375 231.13186645507813,600.3046264648438 C232.2030487060547,608.3534545898438 234.96592712402344,610.5072021484375 243.1703338623047,609.8516845703125 C251.1350860595703,609.21533203125 259.0739440917969,608.2243041992188 267.0447692871094,607.7052612304688 C272.8714599609375,607.3258666992188 274.77288818359375,609.3409423828125 275.3177490234375,615.1275024414063 C276.09716796875,623.4056396484375 276.7622985839844,631.706298828125 277.9355773925781,639.9317626953125 C278.818359375,646.1205444335938 281.70654296875,648.281005859375 287.8920593261719,647.8491821289063 C295.1980285644531,647.339111328125 302.47259521484375,646.3953247070313 309.77252197265625,645.7791748046875 C319.4705505371094,644.9605712890625 322.84356689453125,640.5289916992188 321.3546447753906,630.8789672851563 C320.3155517578125,624.14404296875 319.5832824707031,617.35546875 318.9212646484375,610.5706176757813 C318.3683166503906,604.9033813476563 320.4759521484375,602.2876586914063 326.3424987792969,601.5521850585938 C334.102783203125,600.579345703125 341.9160461425781,600.031494140625 349.67938232421875,599.0797729492188 C357.18743896484375,598.1592407226563 359.76177978515625,594.69384765625 358.94061279296875,587.3059692382813 C358.16845703125,580.358642578125 357.3809814453125,573.4109497070313 356.7655334472656,566.4488525390625 C356.0733337402344,558.61865234375 353.2137451171875,555.8305053710938 345.2304992675781,556.2820434570313 C337.4251708984375,556.7235107421875 329.6512451171875,557.6992797851563 321.8489990234375,558.2239990234375 C316.25250244140625,558.6004028320313 314.2022705078125,556.91552734375 313.5254211425781,551.3800048828125 C312.4957275390625,542.9589233398438 311.8509216308594,534.4901123046875 310.7773132324219,526.0753784179688 C310.1014099121094,520.777587890625 305.7130432128906,517.143798828125 300.80914306640625,517.5928955078125 C292.5268249511719,518.3512573242188 284.2529296875,519.2216186523438 275.99176025390625,520.1845092773438 C269.9581604003906,520.8878173828125 266.9828796386719,524.1203002929688 267.3602294921875,530.2332153320313 C267.851806640625,538.1972045898438 268.748779296875,546.1436767578125 269.70623779296875,554.0692138671875 C270.5457458496094,561.0185546875 269.14141845703125,563.1336669921875 261.4117736816406,564.2780151367188M405.1690368652344,734.7967529296875 C406.67266845703125,734.0831298828125 408.1903076171875,733.3973999023438 409.6778259277344,732.6515502929688 C431.4786682128906,721.7199096679688 441.4474182128906,697.6589965820313 433.8154602050781,674.4114379882813 C426.5391845703125,652.2472534179688 403.5840759277344,638.4443359375 380.3798828125,642.280517578125 C354.2718811035156,646.5967407226563 335.4335632324219,673.5046997070313 340.9845275878906,698.551513671875 C347.7168273925781,728.9287109375 374.3061828613281,744.2369995117188 405.1690368652344,734.7967529296875 C405.1690368652344,734.7967529296875 405.1690368652344,734.7967529296875 405.1690368652344,734.7967529296875 Z" fill="#335eac"/>
		</g>
		<g>
			<path d="M552.2420654296875,498.2914733886719 C587.5547485351563,427.24957275390625 622.6886596679688,356.5350036621094 657.8255615234375,285.8218994140625 C660.7822265625,279.8716735839844 661.3446044921875,279.66265869140625 667.3201904296875,282.66033935546875 C676.550048828125,287.29052734375 685.7333374023438,292.0136413574219 694.974853515625,296.6202087402344 C700.3662109375,299.3076171875 700.8683471679688,300.486572265625 698.1834106445313,305.8877868652344 C683.4295043945313,335.56787109375 668.685791015625,365.2530822753906 653.8765258789063,394.905517578125 C636.760498046875,429.1766357421875 619.5439453125,463.3975830078125 602.4793701171875,497.6941833496094 C600.626953125,501.4170227050781 598.2803344726563,504.2098083496094 594.5932006835938,506.28521728515625 C582.9641723632813,512.8309326171875 572.2282104492188,520.765625 561.22509765625,528.2843627929688 C558.4176025390625,530.2027587890625 557.6610717773438,532.3273315429688 558.9822998046875,535.49462890625 C562.05908203125,542.869873046875 564.4940185546875,550.5556640625 568.0924072265625,557.6578979492188 C571.4142456054688,564.2142944335938 569.620849609375,569.0045776367188 565.1430053710938,573.8158569335938 C554.7003173828125,585.0358276367188 544.4763793945313,596.4627685546875 533.8833618164063,607.53759765625 C530.3522338867188,611.229248046875 530.1072998046875,614.3486328125 532.7635498046875,618.5206298828125 C535.7100830078125,623.148681640625 538.0712890625,628.1454467773438 540.8257446289063,632.9015502929688 C542.0178833007813,634.9599609375 542.271728515625,636.7198486328125 541.0689086914063,638.9412231445313 C529.9645385742188,659.4481811523438 518.95849609375,680.0084228515625 507.908447265625,700.5447998046875 C507.3629455566406,701.5585327148438 506.8282775878906,702.643798828125 504.93695068359375,703.1611938476563 C499.8852844238281,698.3245239257813 495.84954833984375,692.2720947265625 491.7074890136719,686.344482421875 C490.37249755859375,684.4340209960938 491.9056396484375,682.5276489257813 492.8857116699219,680.79541015625 C498.4642333984375,670.9351806640625 503.92474365234375,661.0048217773438 509.6976013183594,651.2597045898438 C511.9042053222656,647.5347290039063 511.7387390136719,644.8646850585938 508.7522277832031,641.5479125976563 C497.9395751953125,629.5394287109375 487.4849548339844,617.2093505859375 476.74261474609375,605.1364135742188 C474.16912841796875,602.244140625 474.098876953125,599.8655395507813 476.23028564453125,596.7330932617188 C481.7579040527344,588.6092529296875 486.922119140625,580.2369995117188 492.50006103515625,572.149169921875 C494.8810729980469,568.69677734375 495.1714172363281,565.759765625 493.0284423828125,562.0629272460938 C488.26776123046875,553.850341796875 484.0982360839844,545.2889404296875 479.19256591796875,537.1689453125 C476.88568115234375,533.3504028320313 477.1346435546875,530.35546875 479.00787353515625,526.5646362304688 C497.013671875,490.12738037109375 514.8662109375,453.6144104003906 532.7691040039063,417.12628173828125 C557.7169799804688,366.2796325683594 582.6776123046875,315.4391784667969 607.6151733398438,264.58746337890625 C612.555908203125,254.5125274658203 612.51123046875,254.5104217529297 622.4278564453125,259.5965881347656 C630.5797119140625,263.77752685546875 638.7160034179688,267.9919738769531 646.934814453125,272.037841796875 C650.77734375,273.92938232421875 651.3509521484375,276.2890319824219 649.45556640625,280.0836486816406 C622.5082397460938,334.0334167480469 595.6287231445313,388.0172119140625 568.7738647460938,442.01312255859375 C548.2993774414063,483.1803894042969 527.882080078125,524.3760375976563 507.4457092285156,565.5621948242188 C506.92779541015625,566.60595703125 506.4851379394531,567.68701171875 506.006103515625,568.7501831054688 C504.802978515625,571.4203491210938 505.1869812011719,573.7701416015625 507.8848571777344,575.1381225585938 C510.589111328125,576.50927734375 513.1648559570313,576.111572265625 514.7391967773438,573.2315673828125 C517.3737182617188,568.4119262695313 519.9749755859375,563.569091796875 522.415771484375,558.6494750976563 C532.3345947265625,538.6573486328125 542.1871948242188,518.6322021484375 552.2420654296875,498.2914733886719 C552.2420654296875,498.2914733886719 552.2420654296875,498.2914733886719 552.2420654296875,498.2914733886719 Z" fill="#335eac"/>
		</g>
		<g>
			<path d="M777.935546875,288.0956115722656 C781.7826538085938,292.1858825683594 781.7598876953125,296.2801513671875 779.3727416992188,300.7467041015625 C776.468505859375,306.1808776855469 773.796142578125,311.7384948730469 770.9868774414063,317.2239685058594 C767.3328247070313,324.3592224121094 762.18212890625,325.96881103515625 755.4374389648438,321.7956848144531 C705.072509765625,290.6336975097656 651.9617919921875,264.60906982421875 599.005859375,238.31439208984375 C586.6397705078125,232.1741943359375 573.7726440429688,227.03634643554688 561.0911254882813,221.54100036621094 C552.8062744140625,217.95091247558594 551.1044921875,213.60220336914063 555.1041870117188,205.39059448242188 C557.4380493164063,200.5989227294922 559.8909301757813,195.86509704589844 562.2149047851563,191.0687255859375 C566.4116821289063,182.40736389160156 570.7005615234375,180.98989868164063 579.4074096679688,185.4420928955078 C597.9445190429688,194.92086791992188 616.48486328125,204.39344787597656 635.0281372070313,213.8601531982422 C638.1434936523438,215.4506072998047 641.33837890625,216.89456176757813 644.392578125,218.5931854248047 C648.0203247070313,220.61087036132813 650.3681030273438,219.9276123046875 652.5003662109375,216.17791748046875 C665.5089721679688,193.3015899658203 678.6939086914063,170.52557373046875 691.8141479492188,147.71270751953125 C697.12841796875,138.47250366210938 702.3522338867188,129.1789093017578 707.7830200195313,120.00784301757813 C709.2906494140625,117.46184539794922 709.4017944335938,115.42439270019531 708.1739501953125,112.6253433227539 C698.4581298828125,90.47632598876953 708.373046875,65.88819122314453 730.591796875,56.55608367919922 C751.6713256835938,47.70243835449219 775.8214721679688,57.83365249633789 784.9515380859375,79.36048126220703 C794.1590576171875,101.06986236572266 784.03515625,126.17962646484375 761.8017578125,134.63589477539063 C754.7037353515625,137.33554077148438 751.1338500976563,141.34152221679688 748.2960205078125,148.1295623779297 C734.8101806640625,180.38819885253906 720.792724609375,212.4259033203125 706.769775390625,244.45697021484375 C705.045654296875,248.39529418945313 705.6349487304688,250.3597412109375 709.4287719726563,252.30062866210938 C730.6300659179688,263.1469421386719 751.7384033203125,274.1748962402344 772.8714599609375,285.154296875 C774.4932861328125,285.99688720703125 776.0606689453125,286.94427490234375 777.935546875,288.0956115722656 C777.935546875,288.0956115722656 777.935546875,288.0956115722656 777.935546875,288.0956115722656 Z" fill="#335eac"/>
		</g>
		<g>
			<path d="M455.47119140625,791.403076171875 C440.01544189453125,815.8672485351563 421.2994079589844,837.284423828125 402.29278564453125,858.465576171875 C397.7388000488281,863.54052734375 393.01214599609375,868.460693359375 388.3551330566406,873.4429321289063 C387.1676940917969,874.7134399414063 385.8197021484375,875.75390625 383.9812927246094,874.88232421875 C381.9878845214844,873.9374389648438 381.7891845703125,872.1861572265625 382.1007385253906,870.2177734375 C386.4082336425781,843.0022583007813 389.31414794921875,815.5574340820313 395.5942687988281,788.661865234375 C396.3427734375,785.4564208984375 397.80902099609375,783.8742065429688 400.9889831542969,783.1088256835938 C421.1930847167969,778.2459106445313 441.3590393066406,773.224609375 461.5437316894531,768.2805786132813 C463.5969543457031,767.777587890625 465.6526794433594,767.0205078125 468.62286376953125,767.7908935546875 C465.3790283203125,776.3302001953125 459.98223876953125,783.4320068359375 455.47119140625,791.403076171875 C455.47119140625,791.403076171875 455.47119140625,791.403076171875 455.47119140625,791.403076171875 Z" fill="#335eac"/>
		</g>
		<g>
			<path d="M386.37646484375,422.6656494140625 C380.89984130859375,418.8279724121094 375.7768249511719,415.1075744628906 370.505615234375,411.610595703125 C367.37908935546875,409.5364074707031 366.619140625,407.0737609863281 367.71881103515625,403.5142822265625 C372.08856201171875,389.36993408203125 376.3226623535156,375.18341064453125 380.539794921875,360.9925231933594 C381.1460266113281,358.9526062011719 381.8157958984375,357.1032409667969 384.23358154296875,356.8899230957031 C386.60772705078125,356.6804504394531 387.74749755859375,358.42449951171875 388.8273010253906,360.1553649902344 C400.2850341796875,378.5212707519531 411.7893981933594,396.8582763671875 423.1861267089844,415.2619323730469 C430.72509765625,427.43603515625 438.1125183105469,439.7040100097656 445.5600891113281,451.9346618652344 C446.3392333984375,453.21417236328125 447.0682373046875,454.5242614746094 447.8172302246094,455.8220520019531 C449.02154541015625,457.9087829589844 450.2063293457031,460.1244812011719 447.93524169921875,462.1300354003906 C445.8301086425781,463.989013671875 443.9026184082031,462.5311279296875 442.094970703125,461.2821350097656 C431.2730407714844,453.8045654296875 420.4500427246094,446.3284912109375 409.636962890625,438.838134765625 C401.97271728515625,433.5290222167969 394.3236083984375,428.1980895996094 386.37646484375,422.6656494140625 C386.37646484375,422.6656494140625 386.37646484375,422.6656494140625 386.37646484375,422.6656494140625 Z" fill="#335eac"/>
		</g>
		<g>
			<path d="M532.72705078125,818.0570678710938 C531.8841552734375,811.1788940429688 531.133056640625,804.7366943359375 530.2328491210938,798.3152465820313 C529.9210205078125,796.0912475585938 529.3475341796875,793.8283081054688 531.98828125,792.7537841796875 C534.4469604492188,791.7535400390625 536.0969848632813,793.4056396484375 537.5463256835938,795.0850830078125 C546.0370483398438,804.9246215820313 554.5344848632813,814.7586059570313 562.969970703125,824.6453857421875 C569.0259399414063,831.7432250976563 575.0491943359375,838.8709106445313 580.9685668945313,846.0824584960938 C584.1463012695313,849.9537963867188 583.777099609375,851.9613647460938 579.512451171875,854.460693359375 C569.0205078125,860.6095581054688 558.5076293945313,866.7249145507813 547.9227294921875,872.7115478515625 C543.0921020507813,875.443603515625 540.543212890625,873.9246826171875 539.7777099609375,868.3963012695313 C537.4741821289063,851.7596435546875 535.1043090820313,835.1322021484375 532.72705078125,818.0570678710938 C532.72705078125,818.0570678710938 532.72705078125,818.0570678710938 532.72705078125,818.0570678710938 Z" fill="#335eac"/>
		</g>
		<g>
			<path d="M446.6636047363281,283.5180358886719 C449.1278381347656,301.401123046875 451.487060546875,318.8486328125 453.846435546875,336.296142578125 C454.1905517578125,338.841064453125 454.51043701171875,341.56146240234375 451.605712890625,342.7681884765625 C448.7739562988281,343.9446105957031 447.34857177734375,341.4639892578125 445.9921569824219,339.6983337402344 C432.204833984375,321.75103759765625 418.44903564453125,303.7791748046875 404.7799072265625,285.7417907714844 C401.6425476074219,281.6018371582031 402.36578369140625,278.89080810546875 407.15185546875,276.67193603515625 C416.96197509765625,272.1238708496094 426.8242492675781,267.6826171875 436.742919921875,263.37677001953125 C441.8083801269531,261.1777648925781 444.1275634765625,262.61474609375 444.9047546386719,268.2255554199219 C445.5882263183594,273.1595458984375 446.0172424316406,278.1287841796875 446.6636047363281,283.5180358886719 C446.6636047363281,283.5180358886719 446.6636047363281,283.5180358886719 446.6636047363281,283.5180358886719 Z" fill="#335eac"/>
		</g>
		<g>
			<path d="M282.0830078125,356.7308349609375 C284.7881164550781,356.60626220703125 286.042724609375,358.21435546875 287.377197265625,359.7144775390625 C300.3241882324219,374.26837158203125 313.2887878417969,388.806640625 326.2107849121094,403.3827209472656 C327.81298828125,405.1900634765625 330.23516845703125,407.052490234375 328.2133483886719,409.8210144042969 C326.52099609375,412.1383361816406 324.03289794921875,411.3170471191406 321.7941589355469,410.5255432128906 C303.1235656738281,403.9244384765625 284.4341735839844,397.37481689453125 265.8099670410156,390.64501953125 C260.4730529785156,388.7165222167969 259.8578186035156,386.6716003417969 262.86181640625,382.0289611816406 C267.74468994140625,374.4825134277344 272.7925109863281,367.0426330566406 277.7852478027344,359.5675048828125 C278.72833251953125,358.155517578125 279.8431396484375,356.9333801269531 282.0830078125,356.7308349609375 C282.0830078125,356.7308349609375 282.0830078125,356.7308349609375 282.0830078125,356.7308349609375 Z" fill="#335eac"/>
		</g>
		<g>
			<path d="M735.318359375,406.1675109863281 C738.183349609375,405.8628845214844 739.6844482421875,407.3653259277344 741.0040283203125,409.1793518066406 C745.7061157226563,415.64324951171875 750.4926147460938,422.0480041503906 755.0806884765625,428.59185791015625 C758.1468505859375,432.96502685546875 757.3032836914063,435.3792419433594 752.1587524414063,437.228271484375 C736.9675903320313,442.6880798339844 721.7459106445313,448.0633544921875 706.5315551757813,453.4584655761719 C704.4822387695313,454.1851806640625 702.277587890625,455.1349182128906 700.587158203125,452.94024658203125 C698.8965454101563,450.7452697753906 700.2727661132813,448.90130615234375 701.6505737304688,447.131591796875 C711.4699096679688,434.51922607421875 721.2777099609375,421.8977966308594 731.091064453125,409.2807312011719 C732.1251220703125,407.9512023925781 733.2597045898438,406.74371337890625 735.318359375,406.1675109863281 C735.318359375,406.1675109863281 735.318359375,406.1675109863281 735.318359375,406.1675109863281 Z" fill="#335eac"/>
		</g>
		<g>
			<path d="M471.57867431640625,870.64892578125 C475.1322937011719,861.9877319335938 478.56219482421875,853.6908569335938 481.9791564941406,845.388671875 C482.84173583984375,843.2928466796875 483.8758850097656,841.3638916015625 486.5854187011719,841.64111328125 C489.3251953125,841.9215087890625 489.29046630859375,844.2095336914063 489.5372619628906,846.148681640625 C491.4652099609375,861.2971801757813 493.46148681640625,876.4384155273438 495.2034606933594,891.6085815429688 C495.84857177734375,897.2266235351563 494.4163513183594,898.6490478515625 488.82293701171875,898.25439453125 C482.03228759765625,897.7752075195313 475.2627258300781,896.9567260742188 468.4975280761719,896.1694946289063 C463.611083984375,895.6009521484375 462.31378173828125,893.3788452148438 464.1993713378906,888.52490234375 C466.4867858886719,882.63671875 469.0221252441406,876.8447875976563 471.57867431640625,870.64892578125 C471.57867431640625,870.64892578125 471.57867431640625,870.64892578125 471.57867431640625,870.64892578125 Z" fill="#335eac"/>
		</g>
		<g>
			<path d="M491.86798095703125,409.62945556640625 C491.3125,415.878662109375 490.795166015625,421.6678466796875 490.3827209472656,427.46453857421875 C490.2420654296875,429.4412536621094 489.78448486328125,431.2610778808594 487.7093505859375,431.7705078125 C485.2322082519531,432.37860107421875 484.19927978515625,430.5068359375 483.351318359375,428.598388671875 C477.476318359375,415.3759460449219 471.61529541015625,402.1472473144531 465.7078552246094,388.9393310546875 C464.2245788574219,385.6230773925781 465.24615478515625,383.3163146972656 468.536376953125,382.2747802734375 C475.0310974121094,380.21893310546875 481.561767578125,378.2477722167969 488.15643310546875,376.54742431640625 C492.1117858886719,375.5276184082031 494.082275390625,377.6623840332031 493.7918701171875,382.3108825683594 C493.2322692871094,391.2681884765625 492.56805419921875,400.21893310546875 491.86798095703125,409.62945556640625 C491.86798095703125,409.62945556640625 491.86798095703125,409.62945556640625 491.86798095703125,409.62945556640625 Z" fill="#335eac"/>
		</g>
		<g>
			<path d="M627.4725341796875,733.9192504882813 C609.9990844726563,727.6636962890625 600.1129150390625,711.6687622070313 602.98681640625,694.7896728515625 C605.9678955078125,677.2816162109375 620.2452392578125,664.6498413085938 637.592529296875,664.7200317382813 C651.8834838867188,664.7778930664063 662.49560546875,671.64697265625 668.9176025390625,684.2269287109375 C675.9109497070313,697.9260864257813 674.05517578125,711.1112670898438 664.2877807617188,722.8594970703125 C655.2933959960938,733.6777954101563 643.5377197265625,737.2789916992188 629.7947998046875,734.5430908203125 C629.1427612304688,734.413330078125 628.5032348632813,734.2203369140625 627.4725341796875,733.9192504882813 C627.4725341796875,733.9192504882813 627.4725341796875,733.9192504882813 627.4725341796875,733.9192504882813 Z" fill="#335eac"/>
		</g>
		<g>
			<path d="M353.06591796875,695.43115234375 C351.4378662109375,676.4981689453125 361.1034851074219,660.8894653320313 377.2122497558594,655.8504028320313 C397.8385314941406,649.3982543945313 418.68414306640625,661.715087890625 423.2423095703125,683.0477294921875 C427.29248046875,702.0028686523438 414.3746032714844,720.9995727539063 394.72491455078125,724.9844360351563 C375.7290954589844,728.8367309570313 357.3544006347656,715.9639892578125 353.06591796875,695.43115234375 C353.06591796875,695.43115234375 353.06591796875,695.43115234375 353.06591796875,695.43115234375 Z" fill="#335eac"/>
		</g>
	</g>
	<g>
		<path d="M731.3224662184316,627.1315010137189 C743.5944865745622,627.1315010137189 753.5630586565316,637.1000730956882 753.5630586565316,649.3720934518188 C753.5630586565316,661.6441138079495 743.5944865745622,671.6126858899188 731.3224662184316,671.6126858899188 C719.050445862301,671.6126858899188 709.0818737803316,661.6441138079495 709.0818737803316,649.3720934518188 C709.0818737803316,637.1000730956882 719.050445862301,627.1315010137189 731.3224662184316,627.1315010137189 Z" fill="#335eac"/>
	</g>
	<g>
		<path d="M685.8412813422301,574.732702747769 C698.1133016983607,574.732702747769 708.08187378033,584.7012748297384 708.08187378033,596.973295185869 C708.08187378033,609.2453155419996 698.1133016983607,619.213887623969 685.8412813422301,619.213887623969 C673.5692609860995,619.213887623969 663.6006889041302,609.2453155419996 663.6006889041302,596.973295185869 C663.6006889041302,584.7012748297384 673.5692609860995,574.732702747769 685.8412813422301,574.732702747769 Z" fill="#335eac"/>
	</g>
	<g>
		<path d="M737.0849939049681,528.0274586277603 C749.3570142610987,528.0274586277603 759.325586343068,537.9960307097297 759.325586343068,550.2680510658603 C759.325586343068,562.5400714219909 749.3570142610987,572.5086435039602 737.0849939049681,572.5086435039602 C724.8129735488375,572.5086435039602 714.8444014668681,562.5400714219909 714.8444014668681,550.2680510658603 C714.8444014668681,537.9960307097297 724.8129735488375,528.0274586277603 737.0849939049681,528.0274586277603 Z" fill="#335eac"/>
	</g>
	<g>
		<path d="M783.7902380249781,581.3714022392259 C796.0622583811087,581.3714022392259 806.030830463078,591.3399743211952 806.030830463078,603.6119946773258 C806.030830463078,615.8840150334564 796.0622583811087,625.8525871154258 783.7902380249781,625.8525871154258 C771.5182176688475,625.8525871154258 761.5496455868781,615.8840150334564 761.5496455868781,603.6119946773258 C761.5496455868781,591.3399743211952 771.5182176688475,581.3714022392259 783.7902380249781,581.3714022392259 Z" fill="#335eac"/>
	</g>
	<g>
		<path d="M744.7364058340273,662.6330805062332 C744.7364058340273,662.6330805062332 739.9795811812903,662.6330805062332 739.9795811812903,662.6330805062332 Q739.1689326070297,662.6330805062332 738.6488938990135,662.2659943593982 Q738.1288551909972,661.8836129564451 737.9300168614616,661.3023932239563 Q736.3699007374128,656.6832258762826 736.3699007374128,656.6832258762826 C736.3699007374128,656.6832258762826 726.2903269555683,656.6832258762826 726.2903269555683,656.6832258762826 C726.2903269555683,656.6832258762826 724.7149155754014,661.3023932239563 724.7149155754014,661.3023932239563 Q724.546667758102,661.8071366758545 724.0113337939677,662.2201085910439 Q723.4912950859514,662.6330805062332 722.7265322800451,662.6330805062332 Q717.9085266028357,662.6330805062332 717.9085266028357,662.6330805062332 C717.9085266028357,662.6330805062332 728.1869387142158,636.1111063974041 728.1869387142158,636.1111063974041 C728.1869387142158,636.1111063974041 734.4732889787653,636.1111063974041 734.4732889787653,636.1111063974041 C734.4732889787653,636.1111063974041 744.7364058340273,662.6330805062332 744.7364058340273,662.6330805062332 ZM727.7127857745539,652.4923256999163 C727.7127857745539,652.4923256999163 734.9474419184271,652.4923256999163 734.9474419184271,652.4923256999163 C734.9474419184271,652.4923256999163 732.5154961956453,645.2270790438067 732.5154961956453,645.2270790438067 Q732.2707720977552,644.538792518491 731.9495717192746,643.6057818952854 Q731.6436665969121,642.6727712720798 731.3224662184315,641.5715128315748 Q731.0318563521871,642.688066528198 730.7259512298245,643.6363724075217 Q730.4200461074621,644.5846782868455 730.1447314973358,645.2729648121611 Q727.7127857745539,652.4923256999163 727.7127857745539,652.4923256999163 Z" fill="#34c759"/>
	</g>
	<g>
		<path d="M681.5968477694523,596.606209039036 C681.5968477694523,596.606209039036 673.3832952340191,583.7123081314564 673.3832952340191,583.7123081314564 C673.3832952340191,583.7123081314564 679.5472834496236,583.7123081314564 679.5472834496236,583.7123081314564 Q680.1437984382304,583.7123081314564 680.4191130483567,583.8652606926378 Q680.7097229146011,584.018213253819 680.9238565002548,584.3852994006539 Q686.200719861008,593.3177289736391 686.200719861008,593.3177289736391 Q686.2924913977167,593.0883001318672 686.4148534466617,592.8741665462135 Q686.5372154956067,592.6447377044416 686.6748728006698,592.4153088626697 Q691.2940401483437,584.4770709373628 691.2940401483437,584.4770709373628 Q691.7528978318874,583.7123081314564 692.5329558939118,583.7123081314564 Q698.4369247555081,583.7123081314564 698.4369247555081,583.7123081314564 C698.4369247555081,583.7123081314564 690.116305427248,596.3308944289097 690.116305427248,596.3308944289097 C690.116305427248,596.3308944289097 698.6204678289256,610.2342822402854 698.6204678289256,610.2342822402854 C698.6204678289256,610.2342822402854 692.4564796133211,610.2342822402854 692.4564796133211,610.2342822402854 Q691.8599646247143,610.2342822402854 691.4775832217612,609.9436723740411 Q691.1104970749261,609.6530625077967 690.8963634892724,609.2553858487254 Q685.588909616283,599.9711653850235 685.588909616283,599.9711653850235 Q685.4359570551018,600.3688420440948 685.2524139816842,600.6594519103392 Q680.3120462555298,609.2553858487254 680.3120462555298,609.2553858487254 Q680.0826174137579,609.6377672516785 679.7155312669229,609.9436723740411 Q679.363740376206,610.2342822402854 678.8131111559536,610.2342822402854 Q673.0620948555385,610.2342822402854 673.0620948555385,610.2342822402854 C673.0620948555385,610.2342822402854 681.5968477694523,596.606209039036 681.5968477694523,596.606209039036 Z" fill="#32ade6"/>
	</g>
	<g>
		<path d="M740.1287498724752,554.3977702177543 C740.1287498724752,554.3977702177543 740.1287498724752,564.4773439995988 740.1287498724752,564.4773439995988 C740.1287498724752,564.4773439995988 733.9800569129889,564.4773439995988 733.9800569129889,564.4773439995988 C733.9800569129889,564.4773439995988 733.9800569129889,554.3977702177543 733.9800569129889,554.3977702177543 C733.9800569129889,554.3977702177543 724.3593408146882,537.9553698907698 724.3593408146882,537.9553698907698 C724.3593408146882,537.9553698907698 729.7891567366227,537.9553698907698 729.7891567366227,537.9553698907698 Q730.5845100547651,537.9553698907698 731.058662994427,538.3377512937229 Q731.5328159340888,538.704837440558 731.8234258003332,539.2860571730467 Q735.5707635492739,547.0101615126999 735.5707635492739,547.0101615126999 Q736.0296212328177,547.9278768797874 736.4120026357708,548.72323019793 Q736.7943840387239,549.5032882599543 737.0849939049683,550.2680510658606 Q737.3603085150945,549.472697747718 737.7426899180476,548.6926396856936 Q738.1250713210009,547.9125816236693 738.5533384923083,547.0101615126999 Q742.2700857290127,539.2860571730467 742.2700857290127,539.2860571730467 Q742.3771525218395,539.0566283312749 742.5606955952571,538.827199489503 Q742.7595339247927,538.582475391613 743.0042580226827,538.3989323181954 Q743.2489821205727,538.2000939886599 743.5701824990533,538.0777319397148 Q743.8913828775339,537.9553698907698 744.2737642804871,537.9553698907698 Q749.7341707146578,537.9553698907698 749.7341707146578,537.9553698907698 C749.7341707146578,537.9553698907698 740.1287498724752,554.3977702177543 740.1287498724752,554.3977702177543 Z" fill="#ffd400"/>
	</g>
	<g>
		<path d="M774.527121169711,616.8729817317334 C774.527121169711,616.8729817317334 774.527121169711,590.3510076229045 774.527121169711,590.3510076229045 C774.527121169711,590.3510076229045 784.2854945730747,590.3510076229045 784.2854945730747,590.3510076229045 Q787.0233454182192,590.3510076229045 788.9505476891029,590.8710463309208 Q790.8930452161048,591.3757897828189 792.1013704494367,592.3088004060245 Q793.3249909388867,593.226515773112 793.8756201591392,594.5572030553889 Q794.4415446355098,595.8878903376658 794.4415446355098,597.5244827423052 Q794.4415446355098,598.4116075971564 794.1815252815018,599.2528466836533 Q793.9215059274936,600.078790514032 793.3708767072411,600.8129628077021 Q792.8355427431067,601.5318398452539 791.9790084004917,602.1283548338608 Q791.1224740578767,602.7095745663496 789.929444080663,603.1531369937752 Q792.5449328768623,603.7802424946183 793.7991438785485,605.217996569722 Q795.0533548802348,606.6404553887077 795.0533548802348,608.888858038072 Q795.0533548802348,610.5713362110658 794.3956588671555,612.0396807984058 Q793.737962854076,613.4927301296277 792.4684565962717,614.5786933140146 Q791.2142455945855,615.6493612422834 789.3482243481742,616.2611714870084 Q787.497498357881,616.8729817317334 785.1114384034536,616.8729817317334 Q774.527121169711,616.8729817317334 774.527121169711,616.8729817317334 ZM780.6758141291973,605.6309684849115 C780.6758141291973,605.6309684849115 780.6758141291973,612.2385191279415 780.6758141291973,612.2385191279415 C780.6758141291973,612.2385191279415 785.0043716106267,612.2385191279415 785.0043716106267,612.2385191279415 Q786.2279921000767,612.2385191279415 786.9927549059829,611.932614005579 Q787.7728129680073,611.6114136270984 788.2010801393149,611.1219654313184 Q788.6446425667405,610.6325172355383 788.8128903840397,610.0207069908133 Q788.9811382013391,609.3936014899703 788.9811382013391,608.751200733009 Q788.9811382013391,608.0323236954571 788.7822998718035,607.4511039629683 Q788.598756798386,606.8545889743615 788.1246038587242,606.4569123152902 Q787.6657461751804,606.0592356562189 786.9009833692742,605.8451020705652 Q786.1362205633679,605.6309684849115 784.9737810983904,605.6309684849115 Q780.6758141291973,605.6309684849115 780.6758141291973,605.6309684849115 ZM780.6758141291973,601.5165445891358 C780.6758141291973,601.5165445891358 783.8725226578854,601.5165445891358 783.8725226578854,601.5165445891358 Q784.8973048177997,601.5165445891358 785.7079533920604,601.3788872840727 Q786.5338972224391,601.2259347228915 787.0998216988098,600.8588485760564 Q787.6810414312986,600.4917624292215 787.971651297543,599.8646569283783 Q788.2775564199054,599.222256171417 788.2775564199054,598.2586550359752 Q788.2775564199054,597.3103491566515 788.0481275781335,596.6832436558083 Q787.8186987363616,596.0561381549652 787.3139552844635,595.673756752012 Q786.8245070886835,595.2913753490589 786.0597442827773,595.1231275317596 Q785.3102767329891,594.9548797144602 784.2854945730747,594.9548797144602 Q780.6758141291973,594.9548797144602 780.6758141291973,594.9548797144602 C780.6758141291973,594.9548797144602 780.6758141291973,601.5165445891358 780.6758141291973,601.5165445891358 Z" fill="#ff3b30"/>
	</g>
</g></g></svg>